<?xml version="1.0" standalone="no"?><!DOCTYPE svg PUBLIC "-//W3C//DTD SVG 1.1//EN" "http://www.w3.org/Graphics/SVG/1.1/DTD/svg11.dtd"><svg t="1722334723739" class="icon" viewBox="0 0 1086 1024" version="1.1" xmlns="http://www.w3.org/2000/svg" p-id="6426" xmlns:xlink="http://www.w3.org/1999/xlink" width="212.109375" height="200"><path d="M962.02503 140.57737h-1.866478V37.184982A37.184982 37.184982 0 0 0 922.97357 0h-756.580964A37.184982 37.184982 0 0 0 129.207625 37.184982v103.392388h-4.495322a124.870034 124.870034 0 0 0-124.712303 124.870034v633.787716a124.870034 124.870034 0 0 0 124.76488 124.76488h837.286439a124.870034 124.870034 0 0 0 124.76488-124.76488V265.460548a124.870034 124.870034 0 0 0-124.76488-124.870034z m-758.421153-66.194262h682.066414v66.194262H203.590732z m808.697772 824.852012a50.460638 50.460638 0 0 1-50.381772 50.381772H124.712303a50.460638 50.460638 0 0 1-50.329195-50.381772V265.460548a50.460638 50.460638 0 0 1 50.329195-50.513215h837.286439a50.460638 50.460638 0 0 1 50.381773 50.381773z m0 0" fill="#1A1311" p-id="6427"></path><path d="M543.31609 361.93908a203.879905 203.879905 0 1 0 203.879905 203.879905 203.879905 203.879905 0 0 0-203.879905-203.879905z m0 333.416135a129.523086 129.523086 0 1 1 129.496797-129.523086 129.53623 129.53623 0 0 1-129.496797 129.523086z m0 0M900.457532 261.477851a49.290803 49.290803 0 1 0 34.884744 14.458636 49.317091 49.317091 0 0 0-34.884744-14.458636z m0 0" fill="#1A1311" p-id="6428"></path></svg>