<?xml version="1.0" standalone="no"?><!DOCTYPE svg PUBLIC "-//W3C//DTD SVG 1.1//EN" "http://www.w3.org/Graphics/SVG/1.1/DTD/svg11.dtd"><svg t="1725284282422" class="icon" viewBox="0 0 1067 1024" version="1.1" xmlns="http://www.w3.org/2000/svg" p-id="4286" xmlns:xlink="http://www.w3.org/1999/xlink" width="208.3984375" height="200"><path d="M224.484689 1022.862437a33.454805 33.454805 0 0 1-33.454805-39.142772l56.53967-328.530081L10.035941 421.000951a33.454805 33.454805 0 0 1 18.734891-56.873667l328.196083-47.840721L503.50206 18.535302a33.454805 33.454805 0 0 1 59.88465 0l146.869142 298.755255 326.858091 48.175719a33.454805 33.454805 0 0 1 18.734891 56.874668L818.315221 656.527576l56.204672 328.531081a33.454805 33.454805 0 0 1-48.509717 35.127795L535.284874 863.950365 240.208597 1018.84746a33.454805 33.454805 0 0 1-15.723908 4.013977z m310.800185-230.171656a33.454805 33.454805 0 0 1 15.723908 4.013976l249.241545 131.479233-47.506723-279.016371a33.454805 33.454805 0 0 1 9.701943-29.440828l200.731828-197.720845-278.682372-40.815762a33.454805 33.454805 0 0 1-25.091854-18.399893l-124.119275-253.591519L409.157611 362.791291a33.454805 33.454805 0 0 1-25.090854 18.399893L105.049387 422.005946l200.731827 197.720845a33.454805 33.454805 0 0 1 9.701944 29.439828l-47.840721 279.018371 249.241544-131.479233a33.454805 33.454805 0 0 1 18.399893-4.014976z" fill="#2C2C2C" p-id="4287"></path></svg>